<?xml version="1.0" encoding="UTF-8" ?>
<!DOCTYPE svg PUBLIC "-//W3C//DTD SVG 1.1//EN" "http://www.w3.org/Graphics/SVG/1.1/DTD/svg11.dtd">
<svg width="512pt" height="512pt" viewBox="0 0 512 512" version="1.1" xmlns="http://www.w3.org/2000/svg">
<g id="#53cbc8ff">
<path fill="#53cbc8" opacity="1.00" d=" M 280.95 39.24 C 307.86 35.02 335.68 38.36 361.20 47.72 C 399.91 62.39 432.47 92.54 449.80 130.16 C 450.84 132.44 451.85 134.75 452.80 137.08 C 457.49 149.00 461.35 161.38 462.84 174.14 C 463.66 176.74 463.51 179.50 463.79 182.19 C 464.84 187.04 464.37 192.09 464.60 197.03 C 465.29 201.78 460.64 206.11 455.99 205.61 C 355.00 205.60 254.01 205.61 153.02 205.60 C 148.39 206.08 144.06 201.67 144.52 197.06 C 144.51 178.96 147.83 160.91 153.81 143.83 C 154.26 142.60 154.75 141.38 155.19 140.14 C 165.02 114.42 181.71 91.37 202.99 73.90 C 225.18 55.53 252.46 43.46 280.95 39.24 Z" />
</g>
<g id="#e1147bff">
<path fill="#e1147b" opacity="1.00" d=" M 115.73 234.78 C 117.74 234.13 119.86 233.81 121.97 233.76 C 243.64 233.75 365.32 233.77 486.99 233.75 C 490.25 233.87 493.93 234.22 496.28 236.78 C 500.38 240.68 500.01 248.05 495.46 251.44 C 492.59 254.03 488.51 253.42 484.97 253.50 C 363.31 253.46 241.65 253.51 119.98 253.47 C 113.86 253.97 108.95 247.71 110.33 241.85 C 110.69 238.75 113.10 236.22 115.73 234.78 Z" />
<path fill="#e1147b" opacity="1.00" d=" M 78.51 236.40 C 81.24 233.53 85.56 234.14 89.10 234.60 C 92.96 236.89 95.72 241.32 94.54 245.91 C 93.33 252.44 84.70 255.83 79.41 251.75 C 74.16 248.56 73.77 240.20 78.51 236.40 Z" />
<path fill="#e1147b" opacity="1.00" d=" M 34.62 286.89 C 35.50 282.47 39.12 277.97 43.99 278.25 C 134.34 278.21 224.68 278.25 315.02 278.23 C 319.18 277.83 322.95 280.91 324.24 284.73 C 325.66 289.09 323.62 294.25 319.60 296.45 C 316.71 298.17 313.24 297.56 310.06 297.67 C 221.69 297.65 133.31 297.67 44.93 297.66 C 39.04 298.07 34.55 292.48 34.62 286.89 Z" />
<path fill="#e1147b" opacity="1.00" d=" M 2.45 281.41 C 6.20 276.71 14.50 277.15 17.78 282.19 C 21.45 286.88 19.30 294.52 13.83 296.78 C 8.19 299.63 0.98 295.58 0.00 289.45 L 0.00 286.62 C 0.39 284.72 1.08 282.83 2.45 281.41 Z" />
<path fill="#e1147b" opacity="1.00" d=" M 82.38 322.54 C 87.96 320.84 94.33 325.14 94.70 330.98 C 95.48 336.50 90.63 342.17 84.96 341.73 C 78.88 342.18 73.91 335.75 75.40 329.93 C 75.97 326.38 78.96 323.47 82.38 322.54 Z" />
<path fill="#e1147b" opacity="1.00" d=" M 118.30 322.35 C 227.21 322.08 336.14 322.33 445.06 322.22 C 449.60 321.74 454.21 324.72 455.38 329.18 C 457.17 335.05 452.32 342.14 446.01 341.71 C 337.35 341.73 228.69 341.71 120.03 341.72 C 114.75 342.15 110.10 337.23 110.20 332.07 C 109.90 327.38 113.62 322.85 118.30 322.35 Z" />
<path fill="#e1147b" opacity="1.00" d=" M 25.64 366.93 C 32.07 364.30 39.81 370.16 38.69 377.10 C 38.48 384.55 28.75 388.42 23.09 383.95 C 16.99 379.78 18.50 369.11 25.64 366.93 Z" />
<path fill="#e1147b" opacity="1.00" d=" M 62.33 366.51 C 105.90 366.29 149.48 366.46 193.06 366.42 C 199.45 365.96 204.21 373.18 202.14 379.02 C 200.80 383.25 196.36 386.06 191.97 385.75 C 149.65 385.77 107.33 385.75 65.01 385.75 C 60.88 386.04 56.57 383.83 54.94 379.92 C 52.36 374.49 56.13 366.92 62.33 366.51 Z" />
<path fill="#e1147b" opacity="1.00" d=" M 229.40 366.60 C 247.91 366.15 266.46 366.54 284.99 366.41 C 357.34 366.42 429.70 366.40 502.05 366.42 C 506.94 366.11 511.27 370.30 511.67 375.08 C 512.31 380.48 507.53 386.08 501.97 385.73 C 412.00 385.79 322.03 385.75 232.06 385.75 C 226.82 386.15 221.63 381.42 222.18 376.04 C 221.65 371.57 225.15 367.50 229.40 366.60 Z" />
<path fill="#e1147b" opacity="1.00" d=" M 282.71 410.59 C 338.11 410.34 393.52 410.57 448.93 410.47 C 450.98 410.45 453.04 410.54 455.09 410.67 C 458.80 412.25 461.90 415.82 461.70 420.05 C 462.11 425.71 456.44 430.33 451.02 429.90 C 397.65 429.88 344.28 429.89 290.90 429.89 C 287.45 429.79 283.62 430.48 280.58 428.41 C 278.17 427.04 276.64 424.64 275.75 422.08 C 275.73 421.27 275.68 419.64 275.66 418.83 C 276.41 415.04 279.12 411.96 282.71 410.59 Z" />
<path fill="#e1147b" opacity="1.00" d=" M 243.31 426.69 C 238.31 421.61 241.38 412.70 247.86 410.63 C 254.60 408.79 261.95 415.07 260.37 422.07 C 259.26 429.84 248.17 432.76 243.31 426.69 Z" />
<path fill="#e1147b" opacity="1.00" d=" M 146.58 454.75 C 152.63 453.08 159.14 458.64 158.58 464.85 C 158.66 469.33 154.96 472.82 151.00 474.25 C 145.12 475.71 138.50 470.12 139.25 464.02 C 138.92 459.62 142.55 455.87 146.58 454.75 Z" />
<path fill="#e1147b" opacity="1.00" d=" M 182.40 454.61 C 238.29 454.46 294.20 454.60 350.09 454.54 C 355.19 454.24 360.10 458.81 359.74 464.01 C 360.39 469.56 355.12 473.80 350.09 474.43 C 295.08 474.49 240.06 474.42 185.04 474.47 C 179.84 474.56 174.36 470.51 173.96 465.09 C 173.49 460.14 177.32 455.00 182.40 454.61 Z" />
</g>
</svg>
